HIERARCHY
ROOT Hips
{
	OFFSET -14.64140 90.27770 -84.91600
	CHANNELS 6 Xposition Yposition Zposition Zrotation Xrotation Yrotation
	JOINT Spine
	{
		OFFSET 0.00000 13.20850 -1.60436
		CHANNELS 3 Zrotation Xrotation Yrotation
		JOINT Spine1
		{
			OFFSET 0.00000 8.61716 0.00000
			CHANNELS 3 Zrotation Xrotation Yrotation
			JOINT Spine2
			{
				OFFSET 0.00000 8.61717 0.00000
				CHANNELS 3 Zrotation Xrotation Yrotation
				JOINT Spine3
				{
					OFFSET 0.00000 8.61717 0.00000
					CHANNELS 3 Zrotation Xrotation Yrotation
					JOINT Neck
					{
						OFFSET 0.00000 11.07920 1.10792
						CHANNELS 3 Zrotation Xrotation Yrotation
						JOINT Neck1
						{
							OFFSET 0.00000 7.08032 0.00000
							CHANNELS 3 Zrotation Xrotation Yrotation
							JOINT Head
							{
								OFFSET 0.00000 7.08031 0.00000
								CHANNELS 3 Zrotation Xrotation Yrotation
								End site
								{
									OFFSET 0.00000 0.00000 0.00000
								}
							}
						}
					}
					JOINT RightShoulder
					{
						OFFSET -0.01000 7.91373 5.19711
						CHANNELS 3 Zrotation Xrotation Yrotation
						JOINT RightArm
						{
							OFFSET -18.41580 0.00000 0.00000
							CHANNELS 3 Zrotation Xrotation Yrotation
							JOINT RightForeArm
							{
								OFFSET -29.11090 0.00000 0.00000
								CHANNELS 3 Zrotation Xrotation Yrotation
								JOINT RightHand
								{
									OFFSET -24.65040 0.00000 0.00000
									CHANNELS 3 Zrotation Xrotation Yrotation
									JOINT RightHandThumb1
									{
										OFFSET -5.35114 -0.85590 3.97906
										CHANNELS 3 Zrotation Xrotation Yrotation
										JOINT RightHandThumb2
										{
											OFFSET -4.52789 0.00000 0.00000
											CHANNELS 3 Zrotation Xrotation Yrotation
											JOINT RightHandThumb3
											{
												OFFSET -2.46976 0.00000 0.00000
												CHANNELS 3 Zrotation Xrotation Yrotation
												End site
												{
													OFFSET 0.00000 0.00000 0.00000
												}
											}
										}
									}
									JOINT RightHandIndex1
									{
										OFFSET -14.26970 0.00000 2.88139
										CHANNELS 3 Zrotation Xrotation Yrotation
										JOINT RightHandIndex2
										{
											OFFSET -5.48836 0.00000 0.00000
											CHANNELS 3 Zrotation Xrotation Yrotation
											JOINT RightHandIndex3
											{
												OFFSET -3.01859 0.00000 0.00000
												CHANNELS 3 Zrotation Xrotation Yrotation
												End site
												{
													OFFSET 0.00000 0.00000 0.00000
												}
											}
										}
									}
									JOINT RightHandMiddle1
									{
										OFFSET -14.26970 0.00000 -0.09147
										CHANNELS 3 Zrotation Xrotation Yrotation
										JOINT RightHandMiddle2
										{
											OFFSET -6.17441 0.00000 0.00000
											CHANNELS 3 Zrotation Xrotation Yrotation
											JOINT RightHandMiddle3
											{
												OFFSET -3.56743 0.00000 0.00000
												CHANNELS 3 Zrotation Xrotation Yrotation
												End site
												{
													OFFSET 0.00000 0.00000 0.00000
												}
											}
										}
									}
									JOINT RightHandRing1
									{
										OFFSET -12.69180 0.00000 -3.06433
										CHANNELS 3 Zrotation Xrotation Yrotation
										JOINT RightHandRing2
										{
											OFFSET -5.62556 0.00000 0.00000
											CHANNELS 3 Zrotation Xrotation Yrotation
											JOINT RightHandRing3
											{
												OFFSET -3.56744 0.00000 0.00000
												CHANNELS 3 Zrotation Xrotation Yrotation
												End site
												{
													OFFSET 0.00000 0.00000 0.00000
												}
											}
										}
									}
									JOINT RightHandPinky1
									{
										OFFSET -11.11390 0.00000 -6.03719
										CHANNELS 3 Zrotation Xrotation Yrotation
										JOINT RightHandPinky2
										{
											OFFSET -4.52789 0.00000 0.00000
											CHANNELS 3 Zrotation Xrotation Yrotation
											JOINT RightHandPinky3
											{
												OFFSET -2.46976 0.00000 0.00000
												CHANNELS 3 Zrotation Xrotation Yrotation
												End site
												{
													OFFSET 0.00000 0.00000 0.00000
												}
											}
										}
									}
								}
							}
						}
					}
					JOINT LeftShoulder
					{
						OFFSET 0.01000 7.91373 5.19711
						CHANNELS 3 Zrotation Xrotation Yrotation
						JOINT LeftArm
						{
							OFFSET 18.41580 0.00000 0.00000
							CHANNELS 3 Zrotation Xrotation Yrotation
							JOINT LeftForeArm
							{
								OFFSET 29.11090 0.00000 0.00000
								CHANNELS 3 Zrotation Xrotation Yrotation
								JOINT LeftHand
								{
									OFFSET 24.65040 0.00000 0.00000
									CHANNELS 3 Zrotation Xrotation Yrotation
									JOINT LeftHandThumb1
									{
										OFFSET 5.35114 -0.85590 3.97906
										CHANNELS 3 Zrotation Xrotation Yrotation
										JOINT LeftHandThumb2
										{
											OFFSET 4.52789 0.00000 0.00000
											CHANNELS 3 Zrotation Xrotation Yrotation
											JOINT LeftHandThumb3
											{
												OFFSET 2.46977 0.00000 0.00000
												CHANNELS 3 Zrotation Xrotation Yrotation
												End site
												{
													OFFSET 0.00000 0.00000 0.00000
												}
											}
										}
									}
									JOINT LeftHandIndex1
									{
										OFFSET 14.26970 0.00000 2.88139
										CHANNELS 3 Zrotation Xrotation Yrotation
										JOINT LeftHandIndex2
										{
											OFFSET 5.48836 0.00000 0.00000
											CHANNELS 3 Zrotation Xrotation Yrotation
											JOINT LeftHandIndex3
											{
												OFFSET 3.01859 0.00000 0.00000
												CHANNELS 3 Zrotation Xrotation Yrotation
												End site
												{
													OFFSET 0.00000 0.00000 0.00000
												}
											}
										}
									}
									JOINT LeftHandMiddle1
									{
										OFFSET 14.26970 0.00000 -0.09147
										CHANNELS 3 Zrotation Xrotation Yrotation
										JOINT LeftHandMiddle2
										{
											OFFSET 6.17440 0.00000 0.00000
											CHANNELS 3 Zrotation Xrotation Yrotation
											JOINT LeftHandMiddle3
											{
												OFFSET 3.56744 0.00000 0.00000
												CHANNELS 3 Zrotation Xrotation Yrotation
												End site
												{
													OFFSET 0.00000 0.00000 0.00000
												}
											}
										}
									}
									JOINT LeftHandRing1
									{
										OFFSET 12.69180 0.00000 -3.06433
										CHANNELS 3 Zrotation Xrotation Yrotation
										JOINT LeftHandRing2
										{
											OFFSET 5.62556 0.00000 0.00000
											CHANNELS 3 Zrotation Xrotation Yrotation
											JOINT LeftHandRing3
											{
												OFFSET 3.56744 0.00000 0.00000
												CHANNELS 3 Zrotation Xrotation Yrotation
												End site
												{
													OFFSET 0.00000 0.00000 0.00000
												}
											}
										}
									}
									JOINT LeftHandPinky1
									{
										OFFSET 11.11390 0.00000 -6.03719
										CHANNELS 3 Zrotation Xrotation Yrotation
										JOINT LeftHandPinky2
										{
											OFFSET 4.52789 0.00000 0.00000
											CHANNELS 3 Zrotation Xrotation Yrotation
											JOINT LeftHandPinky3
											{
												OFFSET 2.46976 0.00000 0.00000
												CHANNELS 3 Zrotation Xrotation Yrotation
												End site
												{
													OFFSET 0.00000 0.00000 0.00000
												}
											}
										}
									}
								}
							}
						}
					}
					JOINT pCube4
					{
						OFFSET 0.00000 10.91090 1.10792
						CHANNELS 3 Zrotation Xrotation Yrotation
						End site
						{
							OFFSET 0.00000 0.00000 0.00000
						}
					}
				}
			}
		}
	}
	JOINT RightUpLeg
	{
		OFFSET -9.98441 0.00000 0.00000
		CHANNELS 3 Zrotation Xrotation Yrotation
		JOINT RightLeg
		{
			OFFSET 0.00000 -42.11790 0.00000
			CHANNELS 3 Zrotation Xrotation Yrotation
			JOINT RightFoot
			{
				OFFSET 0.00000 -45.00020 -0.00001
				CHANNELS 3 Zrotation Xrotation Yrotation
				JOINT RightForeFoot
				{
					OFFSET 0.00000 -3.74820 0.00000
					CHANNELS 3 Zrotation Xrotation Yrotation
					JOINT RightToeBase
					{
						OFFSET 0.00000 0.06325 14.43120
						CHANNELS 3 Zrotation Xrotation Yrotation
						End site
						{
							OFFSET 0.00000 0.00000 0.00000
						}
					}
				}
			}
		}
	}
	JOINT LeftUpLeg
	{
		OFFSET 9.98441 0.00000 0.00000
		CHANNELS 3 Zrotation Xrotation Yrotation
		JOINT LeftLeg
		{
			OFFSET 0.00000 -42.11800 0.00000
			CHANNELS 3 Zrotation Xrotation Yrotation
			JOINT LeftFoot
			{
				OFFSET 0.00000 -45.00070 0.00000
				CHANNELS 3 Zrotation Xrotation Yrotation
				JOINT LeftForeFoot
				{
					OFFSET 0.00000 -3.74824 0.00000
					CHANNELS 3 Zrotation Xrotation Yrotation
					JOINT LeftToeBase
					{
						OFFSET 0.00000 0.06325 14.43110
						CHANNELS 3 Zrotation Xrotation Yrotation
						End site
						{
							OFFSET 0.00000 0.00000 0.00000
						}
					}
				}
			}
		}
	}
}
MOTION
Frames: 4
Frame Time: 0.050000
0.012765694095427918 0.00577972691788173 -0.00833706906433999 -0.01319851375073828 0.02502332679683571 -0.007187970758833819 -1.92868664992292 1.261027139809191 -1.017305201228161 -0.9303642312440341 3.7599008014309403 0.36506225611407594 -1.1454966513458373 -1.4897289298803829 -1.0932296400465369 0.6345802131280691 0.3832318696419217 -0.7974838528993596 0.5776728756691014 11.246768766465177 -2.078382969846147 0.4058935869815091 -1.0151670256037515 -6.139188672601088 1.1230834322562269 -16.45602057140355 -0.5010540095030108 -3.0684800073029335 1.2808611834725505 -15.372190427007656 73.16832609373517 19.469957601727746 0.9118138749389192 1.3887307598662921 5.47551672486434 44.83508929183992 21.36168717364402 -0.07360518498910953 -4.308777083531624 4.54409154680949 -0.17188298692766843 -1.5569114024643387 0.04822082900023976 -0.02549391261823238 -56.24793761877188 0.00037357400344589304 -0.009672981468746046 -56.23608833994219 -38.76411717734338 -0.04261140659745412 -0.042283860399014196 0.015039931334801252 -0.0340299683997792 -0.006244864361614396 0.016234065058635457 -0.025710878276585282 0.03160293373990878 -36.71940846331762 0.0031227919795999287 0.03359116639569258 -0.01083961801408313 -0.01848236158826844 -0.013300205327312974 -0.03112139862746047 0.004010808401381754 0.042888557560705906 -19.713238279835686 0.019901056534899292 0.025611353295722415 -0.011022373537546912 0.033145605899121675 0.010788713841483687 0.00922281595601862 -0.03300789805066171 0.02464565672610708 24.02798836341478 -0.008832886037217956 -0.0055672444497996895 28.87578352571178 -0.016592968968373485 -0.043809983196292965 28.841628335378104 0.0001140550527387368 0.020150520769082213 3.0294357780065058 0.9566306415695353 13.002675783356729 -69.37270571336818 28.5918300377407 -5.1451334113134894 4.175080037411058 -7.968335894441394 -49.10826176130546 -12.088286818609712 2.4147418887937917 -0.1547865143387126 -0.429497978210792 0.04402185502337694 -8.082408626651462 -0.00994066512202411 0.009113119627671798 44.57403445084698 -0.023637272220947924 -0.018036059147245598 44.56833150312186 12.495874448767768 0.0074915920370016275 -0.008107913288753056 -0.006908661717194516 0.04552998478808139 -0.009704504092441583 -0.015201148288740059 0.029465553756369077 -0.0019893293253878406 11.074970211553794 -0.044416403528130005 -0.01690884715239665 -0.002734669759264865 0.019019671796127416 -0.03453278934540279 -0.01972889470321418 0.011902911817795825 0.02594711137397006 4.747814156294808 -0.015744454714996265 -0.039503930358305614 0.022393087545629006 0.0187752316138187 0.03960024994388489 -0.017482253582446854 0.028484761493839824 -0.03250251264450767 -5.595575532880982 0.024327683461684554 -0.02943108969329979 -6.7227350071896845 -0.00420845092239612 -0.03849109232916007 -6.746340307798962 0.014987202117825197 0.008903955552150481 0.03948501037176989 -0.007337772504125314 -0.023017608793293055 8.087533297707415 3.53633196067561 -19.183378745868435 -0.013360255688810524 10.350428232569929 0.05289543910602014 -5.620261701195108 -15.637919203053332 3.1937901138083085 -0.03175016033739158 -0.008393500420184776 -0.0003567037314073027 -0.03221420610429558 4.70607060478721 -0.002648992762419174 12.436593525930862 -8.211612701691523 6.863453742963321 0.0068049325159704604 46.41707632575049 -0.03661141316845844 -4.312853219265953 -14.71316804537947 -3.79733383395344 -0.026518452349522586 -0.02001915346878678 -0.018713867933120014 -0.03524194269092825 -10.76950445343141 -0.030070658412741202 
-0.0045837268328983265 -0.006802675157070288 -0.007383690426269987 0.025267048740320222 -0.020845604246546287 -0.02132412728280071 -2.0103108067049726 1.2472067960732933 -1.0466372599220533 -0.8708839675215878 3.6579997139962614 0.4103492736622072 -1.1458836242111141 -1.4318427326223744 -0.9804491779419712 0.44861135848560096 0.29252878067500615 -0.8366750340012844 0.44787263166638197 11.261054294955578 -1.832055176724245 0.328068601747995 -0.9879568737020077 -5.37424101173413 1.0827721677188262 -16.610031980661805 -0.5175085800462668 -3.028550914696353 1.2387865904857545 -15.251409447498604 73.40317136865865 19.241471373143142 0.597487274857552 1.731177028508855 5.673952465849088 44.6162208969654 21.593330000729143 -0.0584816375922938 -4.2010992332220125 4.548468722278933 -0.1314610283979135 -1.6042645662305615 0.02946970997206975 -0.029159418710648345 -56.26736810231345 -0.025129772552154882 -0.002327524850783151 -56.20661524227736 -38.7378101758308 -0.005447351223319485 -0.005506099794778421 -0.010969986022755772 0.02653970341449862 0.0001979236456610039 0.005698056820773256 -0.040633951984934885 0.019808608075500295 -36.6949320012448 0.0006307564403259323 -0.00580986056260491 0.033436619689719164 -0.00864467635988201 0.0001586330364875093 -0.044520060272824916 -0.01829920346526829 -0.005975161627055924 -19.806784411179482 -0.04789168951143227 -0.031658325936879644 -0.023224078163953374 0.008030881963625204 -0.009901814568665476 -0.007470848490486299 -0.0327401104422616 0.015218498614427825 24.041608789286435 -0.022186560576271847 0.02474135704274088 28.891367526375095 -0.028950058090698096 -0.04888645745784178 28.873719377027797 0.003331763535466121 0.03631799323849203 3.1961407677330804 0.9412411683764683 13.030614603240538 -69.30811285274223 28.61035812118094 -5.4692952068341265 3.260836125336402 -7.509613303752473 -49.05545154051038 -12.50647201854387 2.3717772036169293 -0.2038165516639635 -0.49436322177101666 0.11607733438145415 -8.13015206600916 -0.005087496207847237 -0.022874520643003174 44.56032500998538 -0.0006610472520052369 -0.013923182888628899 44.60900747342136 12.509363401530322 -0.02870503231763975 -0.009233120454537152 -0.038252915381333664 -0.027141974226507628 -0.04147409543749481 0.01545189416857323 -0.045000771952005754 0.00022878360697491725 11.08652735292739 -0.016403095907855533 -0.018835570164639066 -0.006293815623615814 -0.04317988667582791 -0.025254084144855825 -0.0225375088135694 0.029804854766004047 0.03181288119552816 4.809817430760239 0.009720803712040232 0.002843505082194722 -0.01122646279823539 0.014760607147553374 -0.033037264845912566 0.010853383110982084 0.035642587798592404 -0.004753237441343894 -5.640403066845066 -0.019500434594303805 -0.015338087809170719 -6.733222828841449 -0.0020339718552938243 0.01195511201650811 -6.714136807908054 0.0466956540139571 -0.023539964337889213 0.03731499822886821 0.034580306702167975 -0.047286775806812446 8.086491432495297 3.5315927550270336 -19.17968628700655 0.025463786169364115 10.411175891382506 0.038437037070757504 -5.581220177379798 -15.68919116837201 3.2175250717163455 -0.013635912216782087 -0.01611245059052693 -0.01682779738973719 0.018753285355602174 4.717058534205356 0.0360857449597945 12.44294438646855 -8.193924078243931 6.880570549615626 -0.0016730402402521686 46.37198419240572 0.02484040710514414 -4.347762268696962 -14.720715123726965 -3.8306287712054314 -0.031150046808464903 -0.005060025297120814 0.03879736559701247 0.015691257906812958 -10.72526565408894 0.04352694226348651 
0.016457966770220458 -0.03492489063226681 -0.028768229155040726 -0.03132005811753307 -0.006032048038615374 -0.04639780396944491 -1.9885810701953 1.4344720070556034 -1.0049931692488268 -0.8764320609923884 3.7250668101268367 0.3261374087187433 -1.1635332182151616 -1.4486733842070767 -0.9259001120616377 0.42259466629676606 0.3197755246493449 -0.8176000773849367 0.31668983199546746 11.123199946714365 -1.5613146159387696 0.3445854280110322 -1.091352815055718 -4.86389674703044 0.9522518950304634 -16.59827715529052 -0.4093943995357675 -2.8639540202903957 1.3017677531606593 -15.12997952713986 73.44639082600315 18.780475419455424 0.7120032180299383 1.8296770522210128 5.940827860910788 44.84770691566487 21.680823686691138 -0.05845450489885702 -4.166700579076862 4.56066785907428 -0.14339967631985476 -1.6270032683485007 -0.028056950337147616 0.009964098828943438 -56.27334979696182 0.01570381440382823 -0.025306152759482975 -56.224145866747726 -38.72205398346502 0.039403593546024775 -0.04320928497313375 -0.013794856591135602 -0.04215501619724266 -0.02786105244444071 0.002357800342504209 0.01791535647961139 0.046649795308830705 -36.73631574471086 -0.031335509057918196 0.0439178704804127 -0.020749777707679547 0.007428254703312109 -0.03285125664790709 0.02901420644510147 -0.039093416555555704 0.017478539567852235 -19.708648719785636 0.034643433434467914 -0.023131040202739553 -0.0307088041524464 0.009910370212638442 0.0316700776991456 0.013080993676121555 0.028476487280132332 -0.04947774374747828 24.040295804419117 0.03066505281199685 -0.006703381149050083 28.83987957267427 0.046581231301807476 0.047472056912696514 28.85908608535664 0.043884190479991134 0.01956171029552809 3.243125999124505 0.9789653275099064 13.013426794202847 -69.16593204612082 28.410489249545726 -5.994560723714687 3.049767466158786 -7.015687100731112 -49.499535941301325 -12.731098356665878 2.3522684846537723 -0.19013079487438053 -0.43663925498650236 0.07554584684290648 -8.127591922521596 -0.022552128633555563 -0.019142593164051362 44.59261904684512 0.009646908226971207 0.0032229517180865155 44.56590379472326 12.445166232005917 -0.010488950553281974 -0.04007574261209746 -0.02307753793990353 -0.0013427423591922593 -0.0009711840536563753 -0.002073488110561173 -0.017818794284476597 0.010058801078857649 11.094292342054157 -0.024455647391903576 -0.01304028712906352 -0.04266929535252587 0.022045595153872166 0.02278736195192876 0.045629900065748706 0.0014408773592565836 -0.03255080414590894 4.750744818039347 0.044773100755532015 0.0003268437038905256 0.013455961182347905 -0.02287953744324997 -0.03134805133653346 -0.03656461182622563 0.03402664574352833 -0.041805209076195934 -5.596426104583864 -0.008648071387324721 0.0028010891577555665 -6.741584913726736 -0.042720106314660194 0.01934619936744218 -6.738149070268126 -0.0008913072854683031 0.027549033707058006 -0.0025476487508099476 0.019256485750428855 0.04710424895440071 8.023370506982953 3.5365387618165416 -19.178051622211473 -0.013263995144410632 10.429785334845112 0.016992459788379245 -5.629093128862607 -15.665121946089556 3.166644935843773 0.0029387703706028217 0.0196941534720789 0.018035370844600572 0.028157953846753733 4.6554037438046265 -0.014322566147383057 12.480924874541904 -8.263795534836186 6.850671523175752 -0.005752796487240584 46.407048419734195 -0.0315314819106329 -4.308013537705087 -14.755384576164257 -3.8206557275959505 0.010657461249354202 -0.0034724598804448713 0.018208474184097594 0.017958789879698667 -10.738652486268185 0.008552994788802669 
0.04715923646688622 0.04361419017224872 -0.04012051597260581 -0.0421879857226605 -0.021920274161867218 0.019983735116168133 -1.9801015140621012 1.6878631600964065 -1.0313113723398066 -0.9287512361383107 3.698955151489653 0.370493619479643 -1.1324137586026877 -1.317078676087013 -0.8686852927890241 0.28489891259812006 0.22007522899147516 -0.7533958660699823 0.2567358803703528 10.944465235550261 -1.3942656246482918 0.3430100457253266 -1.1419593362741556 -4.552605230457166 0.9044272068416646 -16.643021174931462 -0.3878978244516596 -2.6025630666245205 1.2412449884655004 -14.96436375187284 73.3447748227812 18.05951043079976 1.0243195428661613 1.6790676499646864 6.150019132446437 45.37957071411763 21.62730173162422 -0.11902169714684596 -4.119140940643801 4.511427363256439 -0.14718758299416881 -1.602398094367112 -0.009369710855798621 0.01907919076139135 -56.20169105703289 0.0031507192579250283 0.01039674988148404 -56.245395028474 -38.78189641353481 0.033813446652136744 0.038679874290740025 -0.01468456248646791 -0.03929035709986251 -0.006925285995056603 -0.013518934878964823 0.011871675424942699 0.008263623504088435 -36.64485154319271 0.03821719100942256 -0.02406347353340767 0.040324126166591014 0.04107535485687212 0.020650659958479464 -0.03813842497662785 0.03437645129339587 -0.03517155400616664 -19.785024673838876 -0.027837216408978196 -0.02480333159947312 0.01868173132106888 -0.047341618633219895 -0.008584048556600636 -0.02371981871867367 0.030227677448044197 -0.04654008002942472 24.103451777265672 0.004394000392188142 0.029655873204367945 28.876014553543186 -0.02710294184926719 -0.008717381768436743 28.863753074316662 -0.008024149198775966 0.004987743908166029 3.1298588924052875 0.9723283186547508 12.938299343665866 -69.02923631789848 27.99024950234302 -6.3986826782233015 3.128241402401756 -6.562672610815282 -50.160665196355325 -12.929040791766523 2.3916089142023504 -0.2655611509560461 -0.48813416127578635 0.05861125879237707 -8.108070247407747 -0.048256778532540436 -0.02380131394808619 44.5991385829757 -0.007400840148953162 -0.0006777776856959849 44.54276325090008 12.503779293125937 0.0018721786330050964 0.0025837531742456156 -0.020835473614729455 -0.016955636353548624 0.0468444305285539 0.01735353026761017 -0.0025291671681862173 -0.013591247993741328 11.11479267884933 -0.011883513987750916 -0.015075108999822964 0.04272632028642766 0.021528302890673087 0.01098307275706039 0.003003771000641937 0.034550560800182525 0.02683874480647862 4.7622269121664615 0.006813163945086001 0.028406811349064837 0.009928961435500577 -0.0033722719752465454 0.017057328273247584 -0.033198390832111006 -0.005257795580384543 0.009040847924252363 -5.570795712509962 -0.026008005117477983 -0.03298270605383557 -6.704485832965894 -0.027806047356713767 0.010400021895066626 -6.680041488704686 0.044515431001590486 0.041993288490925956 0.003661064192030967 0.024199041703355243 0.029142648987505616 8.03476359201463 3.5223123736271877 -19.229746218978807 0.028748129591994638 10.373343794570964 0.027858563512074594 -5.597234029459352 -15.679057096667272 3.197830508065695 -0.012406014919144502 -0.006317548516426817 0.009211282708682468 -0.032678298139341554 4.669892677831706 -0.04884247974081573 12.480210517072683 -8.235361079156844 6.854407834183144 -0.005525515307449435 46.37806010741495 -0.03154450946515316 -4.322895884738787 -14.708470484141795 -3.8591616781833715 0.009861658879863849 0.043460386587888304 -0.00861323457716161 0.039121595870329755 -10.72864038454375 0.012104349939674455 
